<svg width="485" height="97" viewBox="0 0 485 97" fill="none" xmlns="http://www.w3.org/2000/svg">
<g filter="url(#filter0_d_29_1460)">
<path d="M15.72 25.072V51.952C15.72 54.64 16.3813 56.7093 17.704 58.16C19.0267 59.6107 20.968 60.336 23.528 60.336C26.088 60.336 28.0507 59.6107 29.416 58.16C30.7813 56.7093 31.464 54.64 31.464 51.952V25.072H42.408V51.888C42.408 55.8987 41.5547 59.2907 39.848 62.064C38.1413 64.8373 35.8373 66.928 32.936 68.336C30.0773 69.744 26.8773 70.448 23.336 70.448C19.7947 70.448 16.616 69.7653 13.8 68.4C11.0267 66.992 8.82933 64.9013 7.208 62.128C5.58667 59.312 4.776 55.8987 4.776 51.888V25.072H15.72ZM90.285 70H79.341L61.037 42.288V70H50.093V25.072H61.037L79.341 52.912V25.072H90.285V70ZM109.162 25.072V70H98.218V25.072H109.162ZM159.269 25.072L143.333 70H129.637L113.701 25.072H125.349L136.485 58.992L147.685 25.072H159.269ZM174.787 33.84V42.928H189.443V51.376H174.787V61.232H191.363V70H163.843V25.072H191.363V33.84H174.787ZM221.38 70L212.036 53.04H209.412V70H198.468V25.072H216.836C220.377 25.072 223.385 25.6907 225.86 26.928C228.377 28.1653 230.255 29.872 231.492 32.048C232.729 34.1813 233.348 36.5707 233.348 39.216C233.348 42.2027 232.495 44.8693 230.788 47.216C229.124 49.5627 226.649 51.2267 223.364 52.208L233.732 70H221.38ZM209.412 45.296H216.196C218.201 45.296 219.695 44.8053 220.676 43.824C221.7 42.8427 222.212 41.456 222.212 39.664C222.212 37.9573 221.7 36.6133 220.676 35.632C219.695 34.6507 218.201 34.16 216.196 34.16H209.412V45.296ZM256.474 70.448C253.189 70.448 250.245 69.9147 247.642 68.848C245.039 67.7813 242.949 66.2027 241.37 64.112C239.834 62.0213 239.023 59.504 238.938 56.56H250.586C250.757 58.224 251.333 59.504 252.314 60.4C253.295 61.2533 254.575 61.68 256.154 61.68C257.775 61.68 259.055 61.3173 259.994 60.592C260.933 59.824 261.402 58.7787 261.402 57.456C261.402 56.3467 261.018 55.4293 260.25 54.704C259.525 53.9787 258.607 53.3813 257.498 52.912C256.431 52.4427 254.895 51.9093 252.89 51.312C249.989 50.416 247.621 49.52 245.786 48.624C243.951 47.728 242.373 46.4053 241.05 44.656C239.727 42.9067 239.066 40.624 239.066 37.808C239.066 33.6267 240.581 30.3627 243.61 28.016C246.639 25.6267 250.586 24.432 255.45 24.432C260.399 24.432 264.389 25.6267 267.418 28.016C270.447 30.3627 272.069 33.648 272.282 37.872H260.442C260.357 36.4213 259.823 35.2907 258.842 34.48C257.861 33.6267 256.602 33.2 255.066 33.2C253.743 33.2 252.677 33.5627 251.866 34.288C251.055 34.9707 250.65 35.9733 250.65 37.296C250.65 38.7467 251.333 39.8773 252.698 40.688C254.063 41.4987 256.197 42.3733 259.098 43.312C261.999 44.2933 264.346 45.232 266.138 46.128C267.973 47.024 269.551 48.3253 270.874 50.032C272.197 51.7387 272.858 53.936 272.858 56.624C272.858 59.184 272.197 61.5093 270.874 63.6C269.594 65.6907 267.717 67.3547 265.242 68.592C262.767 69.8293 259.845 70.448 256.474 70.448ZM290.537 33.84V42.928H305.193V51.376H290.537V61.232H307.113V70H279.593V25.072H307.113V33.84H290.537Z" fill="black"/>
</g>
<g filter="url(#filter1_d_29_1460)">
<rect x="316" y="51" width="20" height="20" fill="#4271D0"/>
</g>
<g filter="url(#filter2_d_29_1460)">
<path d="M364.8 26.072C369.536 26.072 373.675 27.0107 377.216 28.888C380.757 30.7653 383.488 33.4107 385.408 36.824C387.371 40.1947 388.352 44.0987 388.352 48.536C388.352 52.9307 387.371 56.8347 385.408 60.248C383.488 63.6613 380.736 66.3067 377.152 68.184C373.611 70.0613 369.493 71 364.8 71H347.968V26.072H364.8ZM364.096 61.528C368.235 61.528 371.456 60.3973 373.76 58.136C376.064 55.8747 377.216 52.6747 377.216 48.536C377.216 44.3973 376.064 41.176 373.76 38.872C371.456 36.568 368.235 35.416 364.096 35.416H358.912V61.528H364.096ZM422.436 63.064H405.668L402.98 71H391.524L407.78 26.072H420.452L436.708 71H425.124L422.436 63.064ZM419.62 54.616L414.052 38.168L408.548 54.616H419.62ZM480.184 26.072L464.632 56.152V71H453.688V56.152L438.136 26.072H450.552L459.256 44.888L467.896 26.072H480.184Z" fill="black"/>
</g>
<defs>
<filter id="filter0_d_29_1460" x="0.776001" y="24.432" width="310.337" height="54.016" filterUnits="userSpaceOnUse" color-interpolation-filters="sRGB">
<feFlood flood-opacity="0" result="BackgroundImageFix"/>
<feColorMatrix in="SourceAlpha" type="matrix" values="0 0 0 0 0 0 0 0 0 0 0 0 0 0 0 0 0 0 127 0" result="hardAlpha"/>
<feOffset dy="4"/>
<feGaussianBlur stdDeviation="2"/>
<feComposite in2="hardAlpha" operator="out"/>
<feColorMatrix type="matrix" values="0 0 0 0 0 0 0 0 0 0 0 0 0 0 0 0 0 0 0.25 0"/>
<feBlend mode="normal" in2="BackgroundImageFix" result="effect1_dropShadow_29_1460"/>
<feBlend mode="normal" in="SourceGraphic" in2="effect1_dropShadow_29_1460" result="shape"/>
</filter>
<filter id="filter1_d_29_1460" x="312" y="51" width="28" height="28" filterUnits="userSpaceOnUse" color-interpolation-filters="sRGB">
<feFlood flood-opacity="0" result="BackgroundImageFix"/>
<feColorMatrix in="SourceAlpha" type="matrix" values="0 0 0 0 0 0 0 0 0 0 0 0 0 0 0 0 0 0 127 0" result="hardAlpha"/>
<feOffset dy="4"/>
<feGaussianBlur stdDeviation="2"/>
<feComposite in2="hardAlpha" operator="out"/>
<feColorMatrix type="matrix" values="0 0 0 0 0 0 0 0 0 0 0 0 0 0 0 0 0 0 0.25 0"/>
<feBlend mode="normal" in2="BackgroundImageFix" result="effect1_dropShadow_29_1460"/>
<feBlend mode="normal" in="SourceGraphic" in2="effect1_dropShadow_29_1460" result="shape"/>
</filter>
<filter id="filter2_d_29_1460" x="343.968" y="26.072" width="140.215" height="52.928" filterUnits="userSpaceOnUse" color-interpolation-filters="sRGB">
<feFlood flood-opacity="0" result="BackgroundImageFix"/>
<feColorMatrix in="SourceAlpha" type="matrix" values="0 0 0 0 0 0 0 0 0 0 0 0 0 0 0 0 0 0 127 0" result="hardAlpha"/>
<feOffset dy="4"/>
<feGaussianBlur stdDeviation="2"/>
<feComposite in2="hardAlpha" operator="out"/>
<feColorMatrix type="matrix" values="0 0 0 0 0 0 0 0 0 0 0 0 0 0 0 0 0 0 0.25 0"/>
<feBlend mode="normal" in2="BackgroundImageFix" result="effect1_dropShadow_29_1460"/>
<feBlend mode="normal" in="SourceGraphic" in2="effect1_dropShadow_29_1460" result="shape"/>
</filter>
</defs>
</svg>
